<svg width="87" height="34" viewBox="0 0 87 34" fill="none" xmlns="http://www.w3.org/2000/svg">
<path d="M6.72 34C6.592 34 6.528 33.92 6.528 33.76V6.39998H0.288004C0.128004 6.39998 0.0480042 6.31998 0.0480042 6.15998L0.0960042 0.78398C0.0960042 0.65598 0.160004 0.59198 0.288004 0.59198H18.528C18.688 0.59198 18.768 0.65598 18.768 0.78398V6.15998C18.768 6.31998 18.704 6.39998 18.576 6.39998H12.288L12.336 33.76C12.336 33.92 12.272 34 12.144 34H6.72Z" fill="#141414"/>
<path d="M17.3036 33.76L23.2556 0.78398C23.2876 0.65598 23.3676 0.59198 23.4956 0.59198H30.4556C30.5836 0.59198 30.6636 0.65598 30.6956 0.78398L36.4076 33.76C36.4396 33.92 36.3756 34 36.2156 34H30.8876C30.7596 34 30.6796 33.92 30.6476 33.76L30.1196 30.256H23.5916L23.0636 33.76C23.0316 33.92 22.9516 34 22.8236 34H17.4956C17.3676 34 17.3036 33.92 17.3036 33.76ZM24.5516 25.12H29.1596L27.1916 11.632L26.9036 9.85598L26.7116 11.632L24.5516 25.12Z" fill="#141414"/>
<path d="M39.66 34C39.5 34 39.42 33.92 39.42 33.76L39.468 0.78398C39.468 0.65598 39.532 0.59198 39.66 0.59198H45.036C45.164 0.59198 45.228 0.65598 45.228 0.78398L45.276 33.76C45.276 33.92 45.212 34 45.084 34H39.66Z" fill="#141414"/>
<path d="M50.1589 34C50.0309 34 49.9669 33.92 49.9669 33.76L50.0149 0.83198C50.0149 0.67198 50.0949 0.59198 50.2549 0.59198H55.5829C55.7429 0.59198 55.8229 0.67198 55.8229 0.83198L55.7749 28.096H65.6629C65.8229 28.096 65.9029 28.176 65.9029 28.336V33.76C65.9029 33.92 65.8229 34 65.6629 34H50.1589Z" fill="#141414"/>
<path d="M67.413 33.76L73.365 0.78398C73.397 0.65598 73.477 0.59198 73.605 0.59198H80.565C80.693 0.59198 80.773 0.65598 80.805 0.78398L86.517 33.76C86.549 33.92 86.485 34 86.325 34H80.997C80.869 34 80.789 33.92 80.757 33.76L80.229 30.256H73.701L73.173 33.76C73.141 33.92 73.061 34 72.933 34H67.605C67.477 34 67.413 33.92 67.413 33.76ZM74.661 25.12H79.269L77.301 11.632L77.013 9.85598L76.821 11.632L74.661 25.12Z" fill="#141414"/>
</svg>
